# xmcd
#
# Track frame offsets: 
#        150
#        12731
#        75350
#        99002
#        168047
#        184730
#        198515
#        211368
#        223476
#
# Disc length: 3572 seconds
#
# Revision: 1
# Processed by: cddbd v1.5.2PL0 Copyright (c) Steve Scherf et al.
# Submitted via: ExactAudioCopy v0.99pb4
#
DISCID=740df209
DTITLE=Art Blakey and The Giants Of Jazz - Live At The 1972 Monterey Jaz
DTITLE=z Festival
DYEAR=1972
DGENRE=Jazz
TTITLE0=Introduction
TTITLE1=Bluen 'n' Boogie
TTITLE2='Round Midnight
TTITLE3=Periodo
TTITLE4=Stardust
TTITLE5=Lover Man
TTITLE6=I Can't Get Started With You
TTITLE7=The Man I Love
TTITLE8=A Night In Tunisia
EXTD=YEAR: 2008
EXTT0=
EXTT1=
EXTT2=
EXTT3=
EXTT4=
EXTT5=
EXTT6=
EXTT7=
EXTT8=
PLAYORDER=
